<?xml version="1.0" encoding="UTF-8" standalone="no"?>
<svg
   width="1080"
   height="1350"
   viewBox="0 0 91.439323 114.29915"
   version="1.1"
   id="svg1"
   sodipodi:docname="template.svg"
   inkscape:version="1.4.2 (ebf0e940d0, 2025-05-08)"
   xml:space="preserve"
   xmlns:inkscape="http://www.inkscape.org/namespaces/inkscape"
   xmlns:sodipodi="http://sodipodi.sourceforge.net/DTD/sodipodi-0.dtd"
   xmlns:xlink="http://www.w3.org/1999/xlink"
   xmlns="http://www.w3.org/2000/svg"
   xmlns:svg="http://www.w3.org/2000/svg"><sodipodi:namedview
     id="namedview1"
     pagecolor="#ffffff"
     bordercolor="#666666"
     borderopacity="1.0"
     inkscape:showpageshadow="2"
     inkscape:pageopacity="0.0"
     inkscape:pagecheckerboard="0"
     inkscape:deskcolor="#d1d1d1"
     inkscape:document-units="mm"
     showgrid="false"
     inkscape:zoom="0.62"
     inkscape:cx="233.06452"
     inkscape:cy="664.51613"
     inkscape:window-width="1920"
     inkscape:window-height="1131"
     inkscape:window-x="0"
     inkscape:window-y="0"
     inkscape:window-maximized="1"
     inkscape:current-layer="layer1" /><defs
     id="defs1"><style
       id="style1">
      .cls-1 {
        fill: none;
        stroke: #fffffe;
        stroke-width: 1.38px;
      }

      .cls-2 {
        fill: #1d375a;
      }

      .cls-2, .cls-3, .cls-4, .cls-5, .cls-6, .cls-7 {
        fill-rule: evenodd;
        stroke-width: 0px;
      }

      .cls-3 {
        fill: #d91d4b;
      }

      .cls-4 {
        fill: #6f8f9d;
      }

      .cls-5 {
        fill: #132742;
      }

      .cls-6 {
        fill: #fffffe;
      }

      .cls-7 {
        fill: #9b9dac;
      }
    </style><marker
       markerWidth="116.12891"
       markerHeight="79.033199"
       refX="58.064455"
       refY="39.5166"
       orient="auto"
       id="marker1"><path
         d="M 0,0 V 79.033199 H 116.12891 V 0 Z"
         style="stroke-width:1.37953;stroke-linejoin:round"
         id="path1" /></marker></defs><g
     id="layer1"><image
       width="91.440002"
       height="114.3"
       preserveAspectRatio="none"
       xlink:href="bckgrnd.jpeg"
       id="image1"
       x="-0.00033972069"
       y="-0.00042465088" /><text
       xml:space="preserve"
       style="font-size:2.48879px;line-height:4.57271px;font-family:'Fira Sans';-inkscape-font-specification:'Fira Sans';letter-spacing:0px;word-spacing:0px;white-space:pre;inline-size:34.1888;display:inline;fill:#ff8a00;fill-opacity:1;stroke:none;stroke-width:0.264583px;stroke-linecap:butt;stroke-linejoin:miter;stroke-opacity:1"
       x="8.2030182"
       y="29.175684"
       id="text1"
       transform="matrix(3.0474232,0,0,3.0474232,-13.764862,-59.554681)"><tspan
         x="8.2030182"
         y="29.175684"
         id="tspan5"><tspan
           style="font-family:Industry;-inkscape-font-specification:Industry;fill:#ffffff"
           id="tspan1">YOUNG ISLANDERS</tspan></tspan></text><g
       id="Group"
       transform="matrix(0.03110493,0,0,0.03110493,38.052607,5.003294)"><path
         id="Fill-1"
         class="cls-6"
         d="M 246.5,67.79 246.02,67.85 118.01,84.16 100.19,72.17 99.23,71.53 H 78.97 c 0,0 -3.28,0 -3.28,0 L 55.17,214.25 c -15.4,1.95 -24.82,3.37 -25.89,3.53 l -9.94,1.53 -2.8,0.43 L 0,342.28 l 2.97,0.99 32.13,10.72 -4.29,29.84 132.53,108.36 2.04,1.66 2.27,-1.33 16.86,-9.86 h 14.28 c 2.62,16.04 21.88,27.29 47.71,27.29 25.83,0 45.09,-11.27 47.71,-27.29 h 14.28 l 16.86,9.86 2.27,1.33 2.04,-1.66 130.87,-107.01 1.65,-1.36 -4.28,-29.78 32.12,-10.79 2.96,-0.99 -16.13,-119.7 -0.38,-2.81 -2.8,-0.43 -9.93,-1.53 c -0.1,-0.02 -9.57,-1.46 -25.94,-3.54 L 417.28,71.53 h -23.54 l -18.78,12.63 -128,-16.31 -0.48,-0.06" /><path
         id="Fill-2"
         class="cls-2"
         d="m 180.57,404.37 v 63.76 L 166.75,476.22 46.35,377.77 88.02,87.93 h 9.58 l 7.62,5.13 -34.77,265.85 110.11,45.47 z m 266.09,-26.6 -7.03,-48.89 -0.02,-0.17 -34.62,-240.78 h -9.58 l -7.62,5.13 34.77,265.85 -110.12,45.47 v 63.76 l 13.82,8.09 120.4,-98 -0.09,-0.58 0.09,0.13 z M 246.5,409.75 411.9,354.16 378.56,99.26 246.5,82.44 114.44,99.26 81.1,354.16 Z m 33.49,49.96 v 0 c 0,-9.12 -14.99,-16.52 -33.49,-16.52 -18.5,0 -33.49,7.4 -33.49,16.52 v 19.2 c 0,9.12 15,16.51 33.49,16.51 18.49,0 33.49,-7.39 33.49,-16.51 z" /><path
         id="Fill-3"
         class="cls-6"
         d="m 292.89,159.61 -4.83,-2.05 v -23.59 l 26.83,1.86 v 5.46 l 10.23,0.64 v 5.39 l -10.23,-0.57 v -5.46 l -21.32,-1.33 v 12.38 c 1.71,-0.69 3.56,-1.01 5.45,-0.92 7.37,0.36 13.27,6.78 13.27,14.32 0,7.54 -5.9,13.61 -13.27,13.5 -3.9,-0.05 -7.65,-1.85 -10.28,-4.94 l 4.14,-3.62 c 1.56,1.86 3.8,2.94 6.13,2.99 4.44,0.09 8.01,-3.54 8.01,-8.1 0,-4.56 -3.57,-8.41 -8.01,-8.59 -2.33,-0.1 -4.57,0.85 -6.13,2.61 v 0 z m 63.08,60.6 c -1.93,-0.16 -3.88,-0.31 -5.84,-0.46 l -10.17,-18.35 -26.25,15.94 c -3.17,-0.17 -6.36,-0.33 -9.58,-0.49 l 34.53,-20.68 c 9.51,-5.66 10.53,-17.89 8.67,-29.85 -1.09,9.91 -5.4,19.89 -16.47,26.41 l -40.03,23.56 c -2.7,-0.1 -5.42,-0.2 -8.14,-0.28 -0.12,-0.94 -0.19,-1.91 -0.19,-2.89 0,-8.32 4.47,-16 11.56,-19.99 l 27.31,-15.35 c 16.48,-9.27 21.35,-27.51 16.99,-40.3 l -23.47,-1.62 v -5.46 l 26.54,2.02 0.68,1.44 c 0.26,0.53 6.18,13.09 9.15,27.31 3.66,17.49 1.2,30.22 -7.21,37.39 l 11.91,21.68 z M 343,158.48 c -2.76,9.32 -9,18.23 -19.2,24.05 l -27.14,15.46 c -4.83,2.76 -8.01,7.82 -8.5,13.42 l 40.3,-23.4 c 10.38,-6.02 15.18,-15.91 14.53,-29.53 v 0 z" /><path
         id="Fill-4"
         class="cls-5"
         d="m 476.51,328.62 -12.55,-94.19 -0.28,-2.11 -2.1,-0.32 c -0.39,-0.06 -14.2,-2.15 -36.58,-4.84 L 404.99,87.94 h -9.58 l 18.04,137.87 c -5.81,-0.66 -12.02,-1.33 -18.6,-2.01 l -0.4,-0.04 C 353.91,219.59 299.9,215.4 246.5,215.4 V 82.44 L 114.44,99.26 98.16,223.79 c -6.58,0.68 -12.8,1.36 -18.6,2.01 L 97.61,87.92 H 88.03 L 68.02,227.14 c -22.36,2.69 -36.17,4.78 -36.55,4.84 l -2.1,0.32 -13.35,99.99 24.84,8.32 1.59,-11.03 c 3.33,-0.28 6.99,-0.58 10.97,-0.88 l -7.06,49.07 120.4,98.45 V 408.81 L 61.62,362.85 66.21,327.79 c 5.66,-0.38 11.82,-0.76 18.5,-1.13 l -3.6,27.49 165.4,55.59 V 322.7 c 84.1,0 143.07,2.6 180.3,5.09 l 4.59,35.06 -105.14,45.96 v 67.41 l 120.4,-98.45 -7.06,-49.07 c 3.99,0.31 7.64,0.6 10.97,0.88 l 1.59,11.03 24.84,-8.32 -0.49,-3.69" /><path
         id="Fill-5"
         class="cls-6"
         d="m 217.35,206.88 9.41,-0.37 0.3,-53.92 -27.15,1.5 0.91,-37.32 -22.65,-9.12 0.32,-6.8 -5.61,0.42 -0.3,6.58 -23.33,12.05 -2.49,37.04 -25.65,1.35 -5,52.54 8.88,-0.35 -1.26,10.84 c 1.87,-0.17 3.77,-0.33 5.68,-0.49 l 1.22,-10.57 81.16,-3.18 0.23,8.84 c 1.86,-0.05 3.72,-0.11 5.58,-0.16 l -0.23,-8.9 z m -22.23,-85.26 -0.47,20.89 -9.67,0.55 0.78,-20.82 z m -19.59,-9.01 10.06,4.05 -20.51,1.35 z m 4.62,10 -0.78,20.78 -11.27,0.64 1.12,-20.7 z m -25.62,1.68 9.09,-0.6 -1.12,20.65 -9.38,0.53 1.42,-20.59 z m -1.8,26.2 41.77,-2.38 -0.19,6.29 -41.96,2.26 z m 59.19,51.02 h -0.3 c 0,0 -83.61,3.28 -83.61,3.28 l -5.76,0.22 1.52,-15.99 9.72,-0.45 0.53,-5.61 -9.72,0.45 1.88,-19.79 20.04,-1.05 v 0 c 0,0 3.28,-0.17 3.28,-0.17 l 2.47,-0.13 v 0 c 0,0 42.2,-2.28 42.2,-2.28 v 0 c 0,0 3.15,-0.17 3.15,-0.17 h 0.06 c 0,0 24.05,-1.33 24.05,-1.33 l -0.11,20.47 -10.71,0.49 -0.03,5.59 10.71,-0.49 -0.09,16.6 -6.83,0.27 v 0 c 0,0 -2.45,0.1 -2.45,0.1 v 0 z" /><path
         id="Fill-6"
         class="cls-6"
         d="m 473.7,328.99 c 0,0 -120.39,-16.3 -227.2,-16.3 -106.81,0 -227.19,16.3 -227.19,16.3 L 31.89,234.8 c 0,0 107.81,-16.58 214.61,-16.58 106.8,0 214.65,16.58 214.65,16.58 l 12.55,94.19" /><path
         id="Fill-7"
         class="cls-7"
         d="m 105.27,245.52 v 2.53 c 0,0.8 -0.05,1.65 -0.13,2.56 -0.21,2.24 -0.43,4.5 -0.64,6.74 -5.18,1.06 -10.35,2.14 -15.5,3.25 v -2.54 c 5.15,-1.11 10.32,-2.19 15.5,-3.25 0.21,-2.25 0.43,-4.5 0.64,-6.74 0.09,-0.91 0.13,-1.76 0.13,-2.56 v 0 z M 77.31,256.4 c 0.03,-0.28 0.08,-0.5 0.13,-0.7 0.01,-0.05 0.02,-0.12 0.04,-0.17 0.06,-0.19 0.15,-0.35 0.25,-0.47 0.02,-0.03 0.04,-0.05 0.06,-0.08 0.12,-0.12 0.25,-0.21 0.42,-0.28 0.03,-0.01 0.07,-0.02 0.1,-0.03 0.18,-0.07 0.39,-0.11 0.65,-0.14 3.11,-0.34 6.22,-0.66 9.33,-0.98 0.13,-0.02 0.25,-0.02 0.36,-0.02 0.52,0 0.79,0.16 0.9,0.56 0.03,0.13 0.05,0.29 0.05,0.48 v 0 c 0,0 0,0 0,0 v -2.54 c 0,-0.76 -0.26,-1.04 -0.95,-1.04 -0.11,0 -0.23,0 -0.36,0.02 -3.12,0.32 -6.23,0.64 -9.33,0.98 -0.26,0.03 -0.46,0.08 -0.65,0.14 -0.03,0 -0.07,0.02 -0.1,0.03 -0.17,0.07 -0.3,0.16 -0.42,0.28 -0.02,0.02 -0.04,0.05 -0.06,0.07 -0.03,0.04 -0.06,0.07 -0.09,0.11 -0.06,0.09 -0.1,0.19 -0.15,0.31 0,0.02 0,0.04 -0.02,0.06 -0.02,0.05 -0.03,0.11 -0.04,0.17 -0.03,0.11 -0.06,0.22 -0.09,0.35 -0.02,0.11 -0.03,0.22 -0.05,0.35 -0.2,1.74 -0.39,3.47 -0.59,5.21 -0.02,0.16 -0.03,0.31 -0.03,0.44 v 2.54 c 0,-0.13 0,-0.28 0.03,-0.44 0.2,-1.74 0.39,-3.47 0.59,-5.21 v 0 z m -6.16,23.51 c 4.95,1.15 9.88,2.32 14.81,3.52 1.14,0.25 1.57,0.48 1.57,1.34 v -2.54 c 0,-0.85 -0.43,-1.09 -1.57,-1.34 -4.92,-1.2 -9.86,-2.38 -14.81,-3.52 -6.78,-1.59 -10.38,-2.73 -10.38,-9.69 v 2.54 c 0,6.95 3.6,8.1 10.38,9.69 z m 2.02,13.66 c 0,-0.18 0.01,-0.38 0.04,-0.61 0.23,-2.23 0.46,-4.45 0.69,-6.67 v -2.53 c -0.23,2.22 -0.46,4.44 -0.69,6.67 -0.02,0.23 -0.04,0.44 -0.04,0.62 v 2.53 z m 29.07,-2.85 c -0.07,0.83 -0.18,1.62 -0.3,2.39 -0.03,0.19 -0.06,0.38 -0.09,0.56 -0.11,0.63 -0.23,1.24 -0.37,1.82 -0.02,0.06 -0.03,0.13 -0.04,0.19 -0.16,0.63 -0.35,1.23 -0.55,1.81 -0.06,0.18 -0.13,0.35 -0.2,0.52 -0.12,0.33 -0.26,0.65 -0.4,0.96 -0.08,0.17 -0.16,0.34 -0.24,0.51 -0.16,0.31 -0.32,0.61 -0.49,0.9 -0.08,0.14 -0.16,0.28 -0.24,0.41 -0.2,0.3 -0.4,0.6 -0.61,0.87 -0.06,0.08 -0.12,0.17 -0.18,0.26 -0.28,0.35 -0.58,0.69 -0.89,1 -0.08,0.08 -0.17,0.15 -0.26,0.23 -0.24,0.23 -0.48,0.44 -0.74,0.64 -0.13,0.1 -0.26,0.19 -0.39,0.29 -0.23,0.17 -0.46,0.32 -0.7,0.47 -0.15,0.09 -0.3,0.18 -0.45,0.26 -0.24,0.13 -0.49,0.26 -0.74,0.38 -0.16,0.08 -0.33,0.15 -0.5,0.22 -0.27,0.11 -0.54,0.21 -0.81,0.3 -0.17,0.05 -0.34,0.11 -0.51,0.17 -0.3,0.09 -0.63,0.16 -0.95,0.23 -0.16,0.03 -0.31,0.08 -0.47,0.11 -0.49,0.09 -0.99,0.17 -1.52,0.22 -7.52,0.79 -15.04,1.64 -22.56,2.53 -0.68,0.08 -1.32,0.12 -1.93,0.12 -5.43,0 -8.08,-3.27 -8.08,-9.95 v 2.53 c 0,6.68 2.65,9.95 8.08,9.95 0.61,0 1.25,-0.04 1.93,-0.12 7.52,-0.9 15.04,-1.74 22.56,-2.53 0.52,-0.05 1.02,-0.13 1.52,-0.22 0.16,-0.04 0.31,-0.08 0.47,-0.11 0.32,-0.07 0.64,-0.15 0.95,-0.24 0.18,-0.05 0.35,-0.11 0.51,-0.17 0.28,-0.09 0.55,-0.19 0.81,-0.3 0.17,-0.07 0.33,-0.14 0.5,-0.22 0.25,-0.12 0.5,-0.24 0.74,-0.37 0.16,-0.09 0.31,-0.17 0.46,-0.27 0.24,-0.15 0.48,-0.31 0.71,-0.47 0.13,-0.09 0.26,-0.18 0.39,-0.28 0.26,-0.2 0.5,-0.42 0.74,-0.64 0.08,-0.08 0.18,-0.15 0.26,-0.23 0.31,-0.31 0.61,-0.65 0.89,-1 0.06,-0.08 0.12,-0.17 0.18,-0.26 0.21,-0.28 0.42,-0.57 0.61,-0.87 0.02,-0.04 0.05,-0.07 0.07,-0.11 0.06,-0.1 0.11,-0.21 0.17,-0.31 0.17,-0.29 0.33,-0.59 0.49,-0.9 0.08,-0.17 0.16,-0.34 0.24,-0.51 0.14,-0.31 0.27,-0.63 0.4,-0.96 0.05,-0.11 0.1,-0.21 0.14,-0.32 0.02,-0.06 0.03,-0.13 0.06,-0.19 0.2,-0.58 0.39,-1.17 0.55,-1.81 0.02,-0.06 0.03,-0.13 0.04,-0.19 0.14,-0.58 0.27,-1.19 0.37,-1.82 0.02,-0.1 0.04,-0.17 0.06,-0.27 0.02,-0.1 0.02,-0.2 0.04,-0.3 0.12,-0.77 0.22,-1.56 0.3,-2.39 0.38,-4.46 0.77,-8.91 1.16,-13.38 0.09,-1.01 0.14,-1.94 0.14,-2.78 v -2.54 c 0,0.85 -0.05,1.77 -0.14,2.78 -0.39,4.46 -0.78,8.92 -1.16,13.38 v 0 z" /><path
         id="Fill-8"
         class="cls-7"
         d="m 50.63,311.05 c -5.25,0.69 -10.49,1.4 -15.73,2.15 v 2.54 c 5.24,-0.75 10.48,-1.46 15.73,-2.15 2.55,-23.56 5.35,-47.13 8.43,-70.69 v -2.54 c -3.07,23.56 -5.88,47.13 -8.43,70.69" /><path
         id="Fill-9"
         class="cls-7"
         d="m 125.11,262.58 c -0.7,8.78 -1.38,17.55 -2.04,26.34 v -2.54 c 1.31,-17.56 2.72,-35.11 4.21,-52.67 v 2.54 c -0.75,8.78 -1.47,17.56 -2.17,26.34 m 18.3,39.22 c -6.23,0.43 -12.46,0.89 -18.69,1.4 -6.23,0.5 -12.46,1.05 -18.68,1.62 v 2.54 c 12.45,-1.16 24.91,-2.16 37.37,-3.02 0.95,-5.71 1.92,-11.42 2.91,-17.13 v -2.54 c -0.99,5.71 -1.96,11.42 -2.91,17.13" /><path
         id="Fill-10"
         class="cls-7"
         d="m 182.29,271.65 v -2.54 c -1.4,-8.12 -2.8,-16.22 -4.23,-24.34 -2.22,8.27 -4.39,16.55 -6.53,24.81 v 2.54 c 2.14,-8.27 4.31,-16.54 6.53,-24.81 1.43,8.11 2.83,16.22 4.23,24.34" /><path
         id="Fill-11"
         class="cls-7"
         d="m 187.36,299.45 c -0.84,-5.05 -1.69,-10.11 -2.54,-15.15 -5.73,0.22 -11.46,0.49 -17.19,0.79 -1.29,5.15 -2.57,10.31 -3.84,15.46 -5.39,0.3 -10.78,0.61 -16.16,0.96 v 2.54 c 5.38,-0.35 10.77,-0.67 16.16,-0.97 1.27,-5.15 2.55,-10.31 3.84,-15.46 5.73,-0.3 11.47,-0.57 17.19,-0.79 0.86,5.04 1.7,10.1 2.54,15.15 5.61,-0.22 11.23,-0.41 16.85,-0.57 v -2.54 c -5.62,0.16 -11.24,0.35 -16.85,0.56" /><path
         id="Fill-12"
         class="cls-7"
         d="m 245.82,298.31 c -0.8,0 -1.61,0 -2.41,0 -6.59,-13.67 -13.36,-27.31 -20.3,-40.9 -0.24,13.69 -0.47,27.39 -0.69,41.08 -5.11,0.08 -10.21,0.18 -15.33,0.31 v 2.54 c 5.12,-0.13 10.22,-0.23 15.33,-0.31 0.22,-13.69 0.45,-27.39 0.69,-41.08 6.94,13.59 13.71,27.23 20.3,40.9 0.8,0 1.61,0 2.41,0 3.89,0 7.77,0.02 11.65,0.05 v -2.54 c -3.88,-0.03 -7.77,-0.05 -11.65,-0.05" /><path
         id="Fill-13"
         class="cls-7"
         d="m 293.92,248.56 c 0.33,11.59 0.66,23.16 0.95,34.74 0,0.07 0,0.13 0,0.2 v -2.54 c 0,-0.06 0,-0.13 0,-0.2 -0.3,-11.58 -0.62,-23.15 -0.95,-34.74 -0.04,-1.31 -0.38,-1.71 -1.52,-1.74 -4.29,-0.12 -8.58,-0.24 -12.87,-0.33 v 2.54 c 4.29,0.1 8.58,0.21 12.87,0.33 1.14,0.04 1.48,0.43 1.52,1.74" /><path
         id="Fill-14"
         class="cls-7"
         d="m 310.64,290.92 c 0.04,-0.61 0.07,-1.24 0.07,-1.9 v -2.55 c 0,0.67 -0.03,1.3 -0.07,1.91 -0.01,0.18 -0.03,0.35 -0.04,0.52 -0.04,0.47 -0.1,0.92 -0.16,1.36 -0.02,0.14 -0.04,0.29 -0.06,0.43 -0.06,0.32 -0.12,0.62 -0.19,0.92 -0.03,0.14 -0.06,0.3 -0.1,0.43 -0.11,0.43 -0.23,0.84 -0.38,1.23 -0.13,0.37 -0.28,0.71 -0.43,1.05 -0.05,0.1 -0.11,0.2 -0.16,0.3 -0.11,0.22 -0.23,0.44 -0.35,0.64 -0.2,0.32 -0.41,0.62 -0.64,0.9 -0.07,0.09 -0.15,0.16 -0.23,0.25 -0.17,0.19 -0.33,0.37 -0.51,0.54 -0.1,0.09 -0.21,0.18 -0.31,0.26 -0.17,0.14 -0.34,0.28 -0.52,0.41 -0.12,0.08 -0.25,0.16 -0.37,0.24 -0.18,0.11 -0.37,0.22 -0.56,0.32 -0.14,0.07 -0.27,0.14 -0.41,0.2 -0.2,0.09 -0.41,0.17 -0.62,0.25 -0.15,0.05 -0.29,0.1 -0.44,0.15 -0.23,0.07 -0.47,0.13 -0.7,0.18 -0.15,0.03 -0.3,0.07 -0.46,0.1 -0.27,0.05 -0.55,0.08 -0.84,0.12 -0.14,0.02 -0.27,0.04 -0.41,0.05 -0.43,0.04 -0.88,0.06 -1.34,0.06 -0.22,0 -0.44,0 -0.66,-0.01 -11.68,-0.42 -23.36,-0.7 -35.05,-0.84 -0.17,-23.04 -0.38,-46.07 -0.59,-69.1 v 2.54 c 0.22,23.03 0.42,46.06 0.59,69.11 11.69,0.14 23.37,0.42 35.05,0.84 0.22,0 0.44,0.01 0.66,0.01 0.46,0 0.91,-0.02 1.34,-0.06 0.14,-0.01 0.28,-0.04 0.41,-0.05 0.28,-0.03 0.57,-0.07 0.84,-0.12 0.16,-0.03 0.31,-0.07 0.46,-0.11 0.24,-0.05 0.48,-0.11 0.7,-0.18 0.15,-0.05 0.3,-0.1 0.44,-0.15 0.21,-0.08 0.42,-0.16 0.62,-0.25 0.14,-0.06 0.28,-0.13 0.41,-0.2 0.2,-0.1 0.38,-0.21 0.57,-0.32 0.12,-0.08 0.25,-0.16 0.37,-0.24 0.18,-0.13 0.35,-0.26 0.52,-0.41 0.1,-0.09 0.21,-0.17 0.31,-0.26 0.18,-0.17 0.35,-0.35 0.51,-0.54 0.08,-0.08 0.15,-0.16 0.23,-0.24 0.23,-0.28 0.45,-0.58 0.64,-0.9 0,0 0,0 0,0 0.13,-0.21 0.25,-0.44 0.37,-0.67 0.05,-0.09 0.1,-0.17 0.14,-0.26 0.16,-0.33 0.31,-0.68 0.43,-1.04 v 0 c 0.14,-0.39 0.26,-0.8 0.38,-1.23 0.04,-0.14 0.06,-0.29 0.1,-0.44 0.07,-0.3 0.13,-0.6 0.19,-0.91 0,-0.05 0.02,-0.09 0.03,-0.14 0.02,-0.09 0.02,-0.2 0.04,-0.3 0.06,-0.44 0.12,-0.89 0.16,-1.35 0.02,-0.17 0.03,-0.34 0.04,-0.52" /><path
         id="Fill-15"
         class="cls-7"
         d="m 355.15,247.43 c -8.25,-0.58 -16.49,-1.09 -24.75,-1.55 v 2.54 c 8.25,0.45 16.5,0.97 24.75,1.55 v -2.54" /><path
         id="Fill-16"
         class="cls-7"
         d="m 351.65,275.29 v -2.54 c -6.63,-0.46 -13.28,-0.87 -19.93,-1.24 v 2.54 c 6.65,0.37 13.3,0.78 19.93,1.24" /><path
         id="Fill-17"
         class="cls-7"
         d="m 356.93,302.43 c -13.2,-0.98 -26.41,-1.78 -39.63,-2.42 -0.86,-23.09 -1.8,-46.18 -2.83,-69.29 v 2.54 c 1.03,23.1 1.97,46.19 2.83,69.29 13.22,0.63 26.43,1.43 39.63,2.42 0.26,-5.5 0.51,-10.99 0.76,-16.48 v -2.53 c -0.26,5.49 -0.51,10.98 -0.76,16.47" /><path
         id="Fill-18"
         class="cls-7"
         d="m 387.08,252.17 c -4.11,-0.37 -8.23,-0.74 -12.35,-1.08 v -2.53 c 4.12,0.34 8.24,0.7 12.35,1.08 1.14,0.09 1.5,0.51 1.62,1.84 0.38,4.2 0.76,8.4 1.13,12.6 0.01,0.19 0.02,0.36 0.02,0.51 v 2.54 c 0,-0.15 0,-0.32 -0.02,-0.51 -0.37,-4.19 -0.74,-8.39 -1.13,-12.6 -0.12,-1.33 -0.47,-1.75 -1.62,-1.84 m 13.82,29.73 c 0.32,-0.13 0.64,-0.27 0.93,-0.44 0.17,-0.1 0.32,-0.23 0.48,-0.35 0.24,-0.18 0.48,-0.35 0.7,-0.55 0.15,-0.14 0.27,-0.32 0.41,-0.48 0.19,-0.22 0.37,-0.43 0.54,-0.68 0.03,-0.05 0.07,-0.08 0.1,-0.12 0.08,-0.14 0.14,-0.3 0.21,-0.45 0.15,-0.28 0.3,-0.57 0.43,-0.89 0.03,-0.08 0.07,-0.14 0.1,-0.21 0.05,-0.13 0.07,-0.29 0.11,-0.43 0.13,-0.4 0.24,-0.82 0.32,-1.27 0.03,-0.13 0.07,-0.24 0.1,-0.37 0.03,-0.19 0.04,-0.4 0.07,-0.6 0.02,-0.16 0.04,-0.33 0.06,-0.5 0.06,-0.6 0.09,-1.22 0.09,-1.88 v -2.54 c 0,0.66 -0.04,1.28 -0.09,1.88 -0.02,0.17 -0.04,0.33 -0.06,0.5 -0.04,0.34 -0.1,0.65 -0.17,0.97 -0.09,0.45 -0.2,0.87 -0.32,1.27 -0.07,0.22 -0.13,0.44 -0.21,0.64 -0.12,0.32 -0.28,0.61 -0.43,0.89 -0.1,0.19 -0.2,0.39 -0.31,0.57 -0.16,0.25 -0.35,0.46 -0.54,0.68 -0.14,0.16 -0.26,0.34 -0.41,0.48 -0.22,0.21 -0.46,0.38 -0.7,0.55 -0.16,0.12 -0.3,0.25 -0.48,0.35 -0.28,0.17 -0.61,0.31 -0.93,0.44 -0.16,0.07 -0.3,0.15 -0.47,0.21 -0.5,0.17 -1.04,0.31 -1.62,0.4 v 2.54 c 0.58,-0.09 1.12,-0.23 1.62,-0.4 0.17,-0.06 0.31,-0.14 0.47,-0.21 m -42.48,-48.65 v 2.54 c 1.74,23.21 3.33,46.43 4.77,69.64 5.27,0.41 10.54,0.85 15.79,1.31 v -2.53 c -5.25,-0.46 -10.52,-0.9 -15.79,-1.31 -1.44,-23.21 -3.03,-46.43 -4.77,-69.64 m 37.03,72.5 c -3.89,-8.58 -7.85,-17.16 -11.89,-25.72 -2.12,-0.19 -4.25,-0.38 -6.37,-0.57 v 2.54 c 2.12,0.18 4.25,0.37 6.37,0.56 4.04,8.56 8.01,17.13 11.89,25.72 5.32,0.53 10.64,1.1 15.94,1.69 v -2.53 c -5.31,-0.59 -10.63,-1.16 -15.94,-1.69" /><path
         id="Fill-19"
         class="cls-7"
         d="m 424.44,256.52 c -0.03,0.12 -0.05,0.26 -0.05,0.42 v -2.54 c 0,-0.13 0,-0.24 0.03,-0.34 0,-0.03 0.01,-0.06 0.02,-0.09 0,-0.02 0,-0.04 0.01,-0.05 0,-0.02 0,-0.04 0.02,-0.06 0.02,-0.05 0.04,-0.1 0.07,-0.14 0,-0.01 0.03,-0.02 0.04,-0.03 0.05,-0.06 0.11,-0.11 0.18,-0.15 0.04,-0.02 0.06,-0.05 0.1,-0.06 0.12,-0.04 0.26,-0.07 0.44,-0.07 0.12,0 0.26,0 0.41,0.03 3.1,0.36 6.21,0.73 9.32,1.1 1.13,0.14 1.5,0.57 1.67,1.91 0.22,1.84 0.44,3.68 0.66,5.52 5.03,0.13 10.06,0.29 15.09,0.46 v 2.54 c -5.03,-0.17 -10.06,-0.33 -15.09,-0.46 -0.23,-1.84 -0.44,-3.68 -0.66,-5.52 -0.17,-1.35 -0.53,-1.78 -1.67,-1.91 -3.11,-0.37 -6.22,-0.75 -9.32,-1.1 -0.15,-0.02 -0.29,-0.03 -0.41,-0.03 -0.17,0 -0.31,0.02 -0.44,0.07 -0.04,0.01 -0.06,0.04 -0.1,0.06 -0.07,0.04 -0.13,0.09 -0.18,0.15 -0.05,0.06 -0.09,0.14 -0.12,0.23 0,0.02 0,0.04 -0.01,0.05 m -1.1,23.73 c 5.32,2.34 10.62,4.71 15.89,7.1 1.37,0.58 1.82,0.94 1.95,2.09 0.24,2.13 0.47,4.25 0.7,6.38 0.03,0.25 0.04,0.47 0.04,0.66 v -2.53 c 0,-0.19 -0.01,-0.41 -0.04,-0.66 -0.23,-2.13 -0.46,-4.25 -0.7,-6.38 -0.13,-1.15 -0.58,-1.51 -1.95,-2.09 -5.27,-2.4 -10.57,-4.76 -15.89,-7.11 -8.34,-3.67 -12.28,-5.77 -13.29,-15.68 -0.39,-3.92 -0.8,-7.83 -1.21,-11.76 -0.1,-0.98 -0.16,-1.9 -0.16,-2.76 v 2.54 c 0,0.85 0.05,1.78 0.16,2.76 0.4,3.92 0.81,7.84 1.21,11.76 1,9.92 4.95,12.01 13.29,15.68 m 34.75,24.78 v -2.54 c 0,0.72 -0.04,1.39 -0.11,2.03 -0.01,0.17 -0.03,0.33 -0.06,0.5 -0.04,0.36 -0.12,0.69 -0.19,1.02 -0.08,0.41 -0.18,0.79 -0.3,1.15 -0.09,0.28 -0.18,0.54 -0.29,0.79 -0.11,0.26 -0.23,0.51 -0.36,0.75 -0.12,0.23 -0.26,0.44 -0.4,0.64 -0.19,0.27 -0.4,0.52 -0.62,0.75 -0.16,0.16 -0.31,0.32 -0.48,0.46 -0.25,0.21 -0.54,0.39 -0.83,0.55 -0.18,0.11 -0.36,0.22 -0.55,0.31 -0.34,0.15 -0.72,0.26 -1.11,0.36 -0.19,0.05 -0.36,0.12 -0.55,0.16 -0.61,0.11 -1.25,0.18 -1.95,0.18 -0.7,0 -1.38,-0.05 -2.13,-0.15 -7.5,-1.02 -15.01,-1.99 -22.53,-2.89 -7.71,-0.92 -11.81,-6.12 -12.74,-15.98 -0.26,-2.89 -0.53,-5.77 -0.81,-8.66 v 2.54 c 0.28,2.89 0.55,5.77 0.81,8.66 0.93,9.86 5.03,15.06 12.74,15.98 7.52,0.91 15.03,1.87 22.53,2.89 0.75,0.1 1.47,0.16 2.13,0.16 0.7,0 1.34,-0.07 1.95,-0.18 0.19,-0.04 0.36,-0.1 0.55,-0.16 0.38,-0.1 0.76,-0.21 1.11,-0.37 0.19,-0.09 0.37,-0.2 0.55,-0.31 0.29,-0.17 0.57,-0.35 0.83,-0.56 0.17,-0.14 0.32,-0.3 0.48,-0.46 0.22,-0.23 0.43,-0.48 0.62,-0.75 0.07,-0.1 0.16,-0.17 0.22,-0.27 0.07,-0.11 0.11,-0.26 0.18,-0.37 0.13,-0.24 0.25,-0.48 0.36,-0.75 0.06,-0.13 0.13,-0.24 0.19,-0.38 0.04,-0.12 0.06,-0.28 0.1,-0.41 0.12,-0.36 0.21,-0.75 0.3,-1.15 0.03,-0.17 0.1,-0.32 0.12,-0.5 0.03,-0.17 0.04,-0.36 0.06,-0.53 0.02,-0.16 0.04,-0.33 0.06,-0.5 0.07,-0.64 0.11,-1.31 0.11,-2.03" /><path
         id="Fill-20"
         class="cls-5"
         d="m 405.4,267.37 c 0.74,7.72 -1.42,11.81 -6.58,12.61 4.29,9.14 8.47,18.3 12.58,27.48 -5.31,-0.59 -10.63,-1.16 -15.94,-1.69 -3.89,-8.58 -7.85,-17.16 -11.89,-25.72 -2.12,-0.19 -4.25,-0.38 -6.37,-0.56 0.62,8.24 1.22,16.49 1.8,24.73 -5.25,-0.46 -10.53,-0.9 -15.79,-1.31 -1.44,-23.22 -3.03,-46.43 -4.77,-69.64 11.01,0.79 22,1.7 32.99,2.72 7.4,0.69 11.38,5.11 12.24,13.73 0.59,5.89 1.18,11.77 1.74,17.66 m -16.57,-1.65 c 0.87,0 1.1,-0.42 0.98,-1.66 -0.37,-4.19 -0.74,-8.39 -1.12,-12.59 -0.11,-1.33 -0.47,-1.75 -1.62,-1.84 -4.11,-0.37 -8.23,-0.74 -12.34,-1.08 0.43,5.35 0.87,10.7 1.29,16.05 4.15,0.36 8.32,0.72 12.48,1.11 0.12,0 0.23,0.02 0.33,0.02 m 67.41,19.49 c -1.24,-10.2 -5.23,-12.54 -13.57,-16.17 -5.23,-2.3 -10.48,-4.56 -15.74,-6.79 -1.53,-0.66 -1.8,-0.98 -1.92,-2.05 -0.19,-1.75 -0.39,-3.49 -0.58,-5.23 -0.13,-1.16 0.06,-1.58 0.86,-1.58 0.12,0 0.26,0.01 0.41,0.03 3.1,0.36 6.21,0.73 9.32,1.1 1.13,0.14 1.5,0.57 1.67,1.91 0.22,1.84 0.44,3.68 0.67,5.52 5.03,0.13 10.06,0.29 15.09,0.46 -0.3,-2.37 -0.61,-4.74 -0.92,-7.11 -1.14,-8.72 -5.23,-13.3 -12.62,-14.21 -6.82,-0.84 -13.64,-1.64 -20.46,-2.4 -0.66,-0.07 -1.29,-0.11 -1.88,-0.11 -6.04,0 -8.54,3.78 -7.7,11.64 0.4,3.92 0.81,7.84 1.2,11.76 1.01,9.91 4.95,12.01 13.29,15.68 5.32,2.34 10.62,4.71 15.89,7.11 1.37,0.58 1.82,0.94 1.95,2.09 0.24,2.13 0.47,4.25 0.7,6.38 0.15,1.29 -0.05,1.74 -0.87,1.74 -0.12,0 -0.26,-0.01 -0.41,-0.03 -3.56,-0.46 -7.14,-0.91 -10.7,-1.35 -1.16,-0.14 -1.54,-0.6 -1.7,-2.08 -0.23,-2.23 -0.46,-4.45 -0.69,-6.68 -5.13,-0.17 -10.27,-0.3 -15.41,-0.42 0.28,2.89 0.55,5.78 0.81,8.66 0.92,9.86 5.03,15.06 12.74,15.98 7.52,0.9 15.03,1.87 22.52,2.89 0.76,0.1 1.47,0.16 2.14,0.16 6.13,0 8.59,-4.38 7.55,-13.36 -0.53,-4.52 -1.07,-9.04 -1.62,-13.56 M 351.65,272.75 c -0.31,-5.08 -0.63,-10.16 -0.96,-15.24 -6.58,-0.44 -13.16,-0.85 -19.74,-1.21 -0.19,-3.47 -0.36,-6.95 -0.55,-10.42 8.25,0.45 16.5,0.97 24.75,1.55 -0.34,-4.83 -0.68,-9.64 -1.03,-14.47 -13.21,-0.91 -26.43,-1.65 -39.65,-2.24 1.03,23.1 1.97,46.19 2.83,69.29 13.22,0.64 26.43,1.43 39.63,2.42 0.25,-5.5 0.51,-10.98 0.76,-16.47 -8.44,-0.62 -16.89,-1.17 -25.34,-1.66 -0.21,-4.26 -0.41,-8.52 -0.63,-12.78 6.65,0.37 13.3,0.78 19.93,1.24 m -42.54,-29.77 c 0.56,14.1 1.08,28.2 1.58,42.3 0.31,9.44 -3.02,14 -10.3,14 -0.22,0 -0.44,0 -0.66,-0.01 -11.68,-0.42 -23.36,-0.7 -35.05,-0.84 -0.17,-23.04 -0.38,-46.07 -0.59,-69.1 11.18,0.13 22.38,0.38 33.56,0.75 7.42,0.25 11.14,4.41 11.46,12.91 m -15.55,39.58 c 1.05,0 1.35,-0.43 1.32,-1.82 -0.3,-11.58 -0.62,-23.15 -0.96,-34.74 -0.04,-1.31 -0.37,-1.71 -1.52,-1.74 -4.29,-0.12 -8.58,-0.23 -12.87,-0.33 0.24,12.76 0.48,25.51 0.71,38.27 4.39,0.1 8.78,0.22 13.18,0.36 0.04,0 0.09,0 0.13,0 M 242.5,229.24 c -0.07,11.72 -0.13,23.45 -0.19,35.18 -5.96,-11.72 -12.06,-23.4 -18.29,-35.03 -5.03,0.07 -10.06,0.15 -15.09,0.28 -0.66,23.05 -1.28,46.1 -1.84,69.15 5.12,-0.13 10.22,-0.24 15.33,-0.31 0.22,-13.69 0.45,-27.39 0.69,-41.08 6.94,13.59 13.71,27.22 20.3,40.9 0.81,0 1.61,0 2.41,0 3.88,0 7.77,0.02 11.65,0.05 -0.08,-23.03 -0.19,-46.06 -0.29,-69.09 -3.59,-0.03 -7.17,-0.04 -10.76,-0.04 -1.31,0 -2.62,0 -3.93,0 M 169,231.11 c 6.66,-0.32 13.33,-0.61 20,-0.85 5.26,22.86 10.34,45.73 15.22,68.63 -5.62,0.16 -11.24,0.35 -16.85,0.56 -0.84,-5.05 -1.68,-10.11 -2.54,-15.15 -5.73,0.23 -11.47,0.49 -17.19,0.79 -1.29,5.15 -2.58,10.31 -3.84,15.47 -5.39,0.3 -10.77,0.62 -16.16,0.96 6.74,-23.52 13.86,-46.99 21.37,-70.42 m 2.52,38.49 c 3.59,-0.17 7.17,-0.33 10.76,-0.48 -1.4,-8.12 -2.8,-16.22 -4.23,-24.33 -2.22,8.27 -4.39,16.54 -6.53,24.81 m -59.38,-34.67 c -2.22,23.3 -4.26,46.6 -6.11,69.91 12.45,-1.16 24.91,-2.17 37.37,-3.02 0.95,-5.71 1.92,-11.42 2.91,-17.13 -7.75,0.51 -15.5,1.08 -23.24,1.7 1.31,-17.56 2.72,-35.11 4.21,-52.67 -5.04,0.38 -10.09,0.78 -15.13,1.22 m -16.73,1.51 c -6.84,0.66 -13.67,1.36 -20.49,2.1 -7.4,0.81 -11.46,5.31 -12.52,14 -0.48,3.94 -0.96,7.88 -1.43,11.82 -1.18,9.97 2.42,11.21 10.17,13.02 4.95,1.15 9.88,2.32 14.81,3.52 1.28,0.28 1.67,0.54 1.55,1.68 -0.2,2.11 -0.41,4.23 -0.61,6.34 -0.13,1.47 -0.51,1.92 -1.67,2.04 -3.58,0.38 -7.15,0.77 -10.73,1.18 -0.14,0.01 -0.27,0.02 -0.38,0.02 -0.85,0 -1.05,-0.45 -0.92,-1.75 0.23,-2.23 0.46,-4.45 0.69,-6.67 -5.25,1.14 -10.49,2.31 -15.72,3.51 -0.32,2.81 -0.63,5.61 -0.93,8.42 -0.99,9.03 1.57,13.43 7.87,13.43 0.61,0 1.25,-0.04 1.93,-0.13 7.52,-0.89 15.03,-1.74 22.56,-2.53 7.72,-0.8 11.8,-5.92 12.64,-15.73 0.37,-4.46 0.77,-8.91 1.16,-13.38 0.9,-10.05 -2.69,-11.51 -10.49,-13.28 -4.89,-1.13 -9.78,-2.24 -14.69,-3.32 -1.41,-0.33 -1.62,-0.59 -1.5,-1.66 0.19,-1.74 0.38,-3.47 0.58,-5.21 0.15,-1.34 0.52,-1.76 1.65,-1.88 3.11,-0.34 6.22,-0.66 9.33,-0.98 0.13,-0.01 0.25,-0.02 0.36,-0.02 0.84,0 1.04,0.41 0.92,1.59 -0.19,1.83 -0.38,3.66 -0.57,5.49 5.15,-1.11 10.32,-2.19 15.5,-3.25 0.21,-2.24 0.43,-4.5 0.64,-6.74 0.77,-7.92 -1.82,-11.72 -8.02,-11.72 -0.53,0 -1.09,0.03 -1.68,0.08 m -60.53,76.76 c 5.24,-0.75 10.48,-1.46 15.72,-2.15 2.55,-23.56 5.35,-47.12 8.43,-70.69 -5.03,0.6 -10.06,1.22 -15.09,1.88 -3.3,23.65 -6.32,47.31 -9.06,70.95" /><polyline
         id="Fill-21"
         class="cls-6"
         points="253.79 358.17 246.39 345.55 239.67 333.42 232.19 333.42 232.19 370.25 238.96 371.26 238.96 345.57 246.39 359.33 253.59 371.13 260.46 369.95 260.46 333.42 253.79 333.42 253.79 358.17" /><path
         id="Fill-22"
         class="cls-6"
         d="m 283.21,333.43 h -15.48 v 35.28 l 15.48,-2.65 c 3.39,-0.58 5.17,-3.05 5.17,-7.06 v -19.4 c 0,-4.01 -1.78,-6.18 -5.17,-6.18 m -0.15,25.77 c 0,0.59 -0.27,0.94 -0.77,1.01 l -8.36,1.17 V 339.7 l 8.36,-0.26 c 0.5,-0.02 0.77,0.29 0.77,0.89 v 18.87" /><path
         id="Fill-23"
         class="cls-6"
         d="m 298.35,333.43 -7.69,31.35 5.18,-0.89 1.48,-7.05 7.24,-0.96 1.33,6.29 4.53,-0.78 -6.65,-27.96 z m 0.16,17.75 2.5,-11.84 2.43,11.34 z" /><path
         id="Fill-24"
         class="cls-6"
         d="m 322.23,333.43 v 20.47 c 0,0.47 -0.17,0.74 -0.48,0.79 l -4.89,0.68 c -0.33,0.05 -0.52,-0.19 -0.52,-0.68 v -21.26 h -3.82 v 22.24 c 0,3.49 1.32,5.14 3.72,4.73 l 6.08,-1.04 c 2.15,-0.37 3.28,-2.29 3.28,-5.5 v -20.43 h -3.38" /><polyline
         id="Fill-25"
         class="cls-6"
         points="155.05 358.79 166.59 360.51 166.59 355.54 158.42 354.55 158.42 348.41 164.98 348.97 164.98 344.13 158.42 343.74 158.42 338.17 166.59 338.39 166.59 333.43 155.05 333.43 155.05 358.79" /><polyline
         id="Fill-26"
         class="cls-6"
         points="176.78 355.71 172.64 333.43 168.33 333.43 174.31 361.65 179.2 362.38 185.92 333.43 181.1 333.43 176.78 355.71" /><polyline
         id="Fill-27"
         class="cls-6"
         points="201.91 333.43 196.67 333.43 196.67 364.97 213.78 367.52 213.78 361.27 201.91 359.83 201.91 333.43" /><polyline
         id="Fill-28"
         class="cls-6"
         points="218.4 368.2 224.78 369.15 224.78 333.43 218.4 333.43 218.4 368.2" /><path
         id="Fill-29"
         class="cls-5"
         d="m 279.99,459.71 c 0,9.12 -14.99,16.51 -33.49,16.51 -18.5,0 -33.49,-7.39 -33.49,-16.51 0,-9.12 14.99,-16.52 33.49,-16.52 18.5,0 33.49,7.4 33.49,16.52" /><path
         id="Fill-30"
         class="cls-5"
         d="m 246.5,71.61 129.42,16.49 19,-12.78 h 19.1 l 20.46,142.33 c 17.95,2.24 28.58,3.86 28.7,3.88 l 9.93,1.53 15.71,116.6 -35.11,11.8 4.42,30.79 -130.87,107.01 -17.75,-10.38 h -18.79 c 0,15.81 -18.6,27.29 -44.23,27.29 -25.63,0 -44.23,-11.46 -44.23,-27.25 v -0.04 H 183.47 L 165.72,489.26 34.85,382.25 39.28,351.4 4.16,339.68 19.92,223.06 l 9.92,-1.52 c 0.12,-0.02 10.89,-1.66 28.68,-3.88 L 78.98,75.33 h 19.1 c 0,0 19,12.78 19,12.78 L 246.5,71.62 Z m 0,-3.82 -0.48,0.06 L 118.01,84.16 100.19,72.17 99.23,71.53 H 78.97 c 0,0 -3.28,0 -3.28,0 L 55.17,214.25 c -15.4,1.95 -24.82,3.37 -25.89,3.53 l -9.94,1.53 -2.8,0.43 L 0,342.28 l 2.97,0.99 32.13,10.72 -4.29,29.84 1.66,1.36 130.87,107.01 2.04,1.66 2.27,-1.33 16.86,-9.86 h 14.28 c 2.62,16.04 21.88,27.29 47.71,27.29 25.83,0 45.09,-11.27 47.71,-27.29 h 14.28 l 16.86,9.86 2.27,1.33 2.04,-1.66 130.87,-107.01 1.65,-1.36 -4.28,-29.78 32.12,-10.79 2.96,-0.99 -16.13,-119.7 -0.38,-2.81 -2.8,-0.43 -9.93,-1.53 c -0.1,-0.02 -9.57,-1.46 -25.94,-3.54 L 417.28,71.54 h -23.54 l -18.78,12.63 -128,-16.31 -0.48,-0.06 v 0 z" /><polyline
         id="Fill-33"
         class="cls-4"
         points="92.54 144.27 87.96 120.39 53.24 71.94 75.68 67.64 94.5 97.92 100.77 62.83 123 58.57 108.65 116.42 113.23 140.3 92.54 144.27" /><path
         id="Fill-34"
         class="cls-4"
         d="m 156.93,131.92 c -10.12,1.94 -15.89,-1.98 -17.83,-12.1 l -9.03,-47.1 c -1.94,-10.13 1.97,-15.89 12.1,-17.84 l 30.92,-5.93 c 10.12,-1.94 15.89,1.98 17.83,12.1 l 9.03,47.1 c 1.94,10.12 -1.97,15.89 -12.09,17.83 l -30.92,5.93 z m 2.05,-20.24 c 0.3,1.54 0.83,1.89 2.36,1.6 l 15.51,-2.97 c 1.54,-0.3 1.9,-0.82 1.61,-2.36 l -7.42,-38.73 c -0.29,-1.54 -0.82,-1.9 -2.36,-1.6 l -15.51,2.97 c -1.54,0.29 -1.9,0.82 -1.6,2.36 l 7.42,38.73 v 0 z" /><path
         id="Fill-35"
         class="cls-4"
         d="m 271.72,94.41 c 1.85,9.68 -2.42,15.98 -12.1,17.83 l -29.7,5.7 c -9.69,1.86 -15.98,-2.42 -17.84,-12.1 l -11.9,-62.06 20.69,-3.96 10.97,57.22 c 0.25,1.32 1.04,1.85 2.36,1.6 l 14.3,-2.74 c 1.33,-0.26 1.86,-1.04 1.61,-2.36 l -10.97,-57.22 20.69,-3.96 11.9,62.06" /><polyline
         id="Fill-36"
         class="cls-4"
         points="338.74 17.23 353.5 94.25 335.13 97.77 299.27 58.9 307.73 103.03 287.7 106.86 272.94 29.84 293.51 25.89 326.55 62 318.71 21.06 338.74 17.23" /><path
         id="Fill-37"
         class="cls-4"
         d="m 394.66,26.13 c -0.29,-1.54 -0.82,-1.9 -2.35,-1.6 l -15.19,2.91 c -1.54,0.29 -1.9,0.82 -1.61,2.36 l 7.51,39.17 c 0.29,1.54 0.82,1.9 2.37,1.6 l 15.18,-2.91 c 1.53,-0.3 1.9,-0.82 1.6,-2.36 l -1.86,-9.68 -11.34,2.17 -3.12,-16.29 31.81,-6.1 5.74,29.93 c 1.94,10.13 -1.97,15.89 -12.1,17.84 l -30.36,5.82 c -10.13,1.94 -15.9,-1.98 -17.84,-12.1 l -9.02,-47.1 c -1.94,-10.13 1.97,-15.89 12.09,-17.84 l 30.37,-5.82 c 10.12,-1.94 15.9,1.98 17.83,12.1 l 2.01,10.45 -20.47,3.92 -1.25,-6.49" /><polyline
         id="Fill-38"
         class="cls-3"
         points="85.21 139.29 80.63 115.42 45.9 66.97 68.35 62.66 87.16 92.94 93.44 57.85 115.67 53.6 101.32 111.45 105.9 135.33 85.21 139.29" /><polygon
         id="Stroke-39"
         class="cls-1"
         points="68.35,62.66 87.16,92.94 93.44,57.85 115.67,53.6 101.32,111.45 105.9,135.33 85.21,139.29 80.63,115.42 45.9,66.97 " /><path
         id="Fill-40"
         class="cls-3"
         d="m 149.6,126.95 c -10.13,1.94 -15.89,-1.98 -17.83,-12.1 l -9.03,-47.09 c -1.94,-10.13 1.97,-15.9 12.1,-17.84 l 30.92,-5.93 c 10.12,-1.94 15.89,1.98 17.83,12.1 l 9.03,47.09 c 1.94,10.12 -1.97,15.89 -12.09,17.84 l -30.92,5.92 z m 2.05,-20.24 c 0.29,1.54 0.82,1.9 2.36,1.6 l 15.51,-2.97 c 1.54,-0.3 1.9,-0.82 1.6,-2.36 l -7.43,-38.73 c -0.29,-1.54 -0.82,-1.9 -2.36,-1.6 l -15.52,2.97 c -1.53,0.29 -1.9,0.82 -1.6,2.36 l 7.43,38.73 v 0 z" /><path
         id="Stroke-41"
         class="cls-1"
         d="m 149.6,126.95 c -10.13,1.94 -15.89,-1.98 -17.83,-12.1 l -9.03,-47.09 c -1.94,-10.13 1.97,-15.9 12.1,-17.84 l 30.92,-5.93 c 10.12,-1.94 15.89,1.98 17.83,12.1 l 9.03,47.09 c 1.94,10.12 -1.97,15.89 -12.09,17.84 l -30.92,5.92 z m 2.05,-20.24 c 0.29,1.54 0.82,1.9 2.36,1.6 l 15.51,-2.97 c 1.54,-0.3 1.9,-0.82 1.6,-2.36 l -7.43,-38.73 c -0.29,-1.54 -0.82,-1.9 -2.36,-1.6 l -15.52,2.97 c -1.53,0.29 -1.9,0.82 -1.6,2.36 l 7.43,38.73 z" /><path
         id="Fill-42"
         class="cls-3"
         d="m 264.39,89.44 c 1.85,9.68 -2.41,15.98 -12.1,17.83 l -29.71,5.69 c -9.69,1.86 -15.98,-2.41 -17.84,-12.1 L 192.85,38.8 213.54,34.84 224.5,92.06 c 0.25,1.32 1.04,1.86 2.36,1.6 l 14.3,-2.74 c 1.32,-0.25 1.85,-1.04 1.6,-2.36 l -10.97,-57.22 20.69,-3.97 11.9,62.06" /><path
         id="Stroke-43"
         class="cls-1"
         d="m 264.39,89.44 c 1.85,9.68 -2.41,15.98 -12.1,17.83 l -29.71,5.69 c -9.69,1.86 -15.98,-2.41 -17.84,-12.1 L 192.85,38.8 213.54,34.84 224.5,92.06 c 0.25,1.32 1.04,1.86 2.36,1.6 l 14.3,-2.74 c 1.32,-0.25 1.85,-1.04 1.6,-2.36 l -10.97,-57.22 20.69,-3.97 11.9,62.06 z" /><polyline
         id="Fill-44"
         class="cls-3"
         points="331.41 12.25 346.17 89.28 327.79 92.8 291.94 53.92 300.39 98.05 280.36 101.89 265.6 24.86 286.18 20.92 319.22 57.02 311.38 16.09 331.41 12.25" /><polygon
         id="Stroke-45"
         class="cls-1"
         points="286.18,20.92 319.22,57.02 311.38,16.09 331.41,12.25 346.17,89.28 327.79,92.8 291.94,53.92 300.39,98.05 280.36,101.89 265.6,24.86 " /><path
         id="Fill-46"
         class="cls-3"
         d="m 387.33,21.16 c -0.29,-1.54 -0.83,-1.9 -2.37,-1.6 l -15.19,2.91 c -1.53,0.3 -1.89,0.82 -1.6,2.36 L 375.68,64 c 0.29,1.54 0.82,1.9 2.36,1.6 l 15.19,-2.91 c 1.53,-0.29 1.89,-0.82 1.6,-2.36 l -1.86,-9.68 -11.34,2.17 -3.12,-16.29 31.81,-6.1 5.73,29.93 c 1.94,10.12 -1.97,15.89 -12.1,17.83 l -30.37,5.82 c -10.12,1.94 -15.89,-1.97 -17.82,-12.09 l -9.02,-47.1 C 344.79,14.7 348.7,8.92 358.83,6.99 l 30.38,-5.82 c 10.12,-1.94 15.9,1.97 17.83,12.1 l 2.01,10.45 -20.47,3.92 -1.25,-6.49" /><path
         id="Stroke-47"
         class="cls-1"
         d="m 387.33,21.16 c -0.29,-1.54 -0.83,-1.9 -2.37,-1.6 l -15.19,2.91 c -1.53,0.3 -1.89,0.82 -1.6,2.36 L 375.68,64 c 0.29,1.54 0.82,1.9 2.36,1.6 l 15.19,-2.91 c 1.53,-0.29 1.89,-0.82 1.6,-2.36 l -1.86,-9.68 -11.34,2.17 -3.12,-16.29 31.81,-6.1 5.73,29.93 c 1.94,10.12 -1.97,15.89 -12.1,17.83 l -30.37,5.82 c -10.12,1.94 -15.89,-1.97 -17.82,-12.09 l -9.02,-47.1 C 344.79,14.7 348.7,8.92 358.83,6.99 l 30.38,-5.82 c 10.12,-1.94 15.9,1.97 17.83,12.1 l 2.01,10.45 -20.47,3.92 -1.25,-6.49 z" /></g><text
       xml:space="preserve"
       style="font-size:4.3890875px;line-height:8.22955261px;font-family:'Fira Sans';-inkscape-font-specification:'Fira Sans';letter-spacing:0px;word-spacing:0px;fill:#ffffff;fill-opacity:1;stroke:none;stroke-width:0.806296px;stroke-linecap:butt;stroke-linejoin:miter;stroke-opacity:1"
       x="17.983141"
       y="35.091347"
       id="CALENDAR_WEEK"><tspan
         sodipodi:role="line"
         id="tspan3"
         style="font-style:normal;font-variant:normal;font-weight:normal;font-stretch:normal;font-family:Industry;-inkscape-font-specification:Industry;fill:#ffffff;fill-opacity:1;stroke:none;stroke-width:0.806296px;line-height:8.22955261px;font-size:4.3890875px"
         x="17.983141"
         y="35.091347">SPIELVORSCHAU KW XX</tspan></text><text
       xml:space="preserve"
       style="font-size:2.53998px;line-height:4.76246px;font-family:'Fira Sans';-inkscape-font-specification:'Fira Sans';letter-spacing:0px;word-spacing:0px;fill:#ffffff;fill-opacity:1;stroke:none;stroke-width:0.806296px;stroke-linecap:butt;stroke-linejoin:miter;stroke-opacity:1"
       x="30.131811"
       y="106.5393"
       id="text3-9"><tspan
         sodipodi:role="line"
         id="tspan3-2"
         style="font-style:normal;font-variant:normal;font-weight:normal;font-stretch:normal;font-size:2.53998px;line-height:4.76246px;font-family:Industry;-inkscape-font-specification:Industry;fill:#ffffff;fill-opacity:1;stroke:none;stroke-width:0.806296px"
         x="30.131811"
         y="106.5393">www.young-islanders.com</tspan></text><rect
       style="fill:#ffffff;stroke-width:0.585919;stroke-linejoin:round"
       id="rect2"
       width="79.999405"
       height="9.5999289"
       x="5.7199593"
       y="38.238609" /><rect
       style="fill:#ffffff;stroke-width:0.585918;stroke-linejoin:round"
       id="rect2-5"
       width="79.999405"
       height="9.5999289"
       x="5.7199593"
       y="89.007843" /><rect
       style="fill:#ffffff;stroke-width:0.585918;stroke-linejoin:round"
       id="rect2-1"
       width="79.999405"
       height="9.5999289"
       x="5.7199593"
       y="76.315536" /><rect
       style="fill:#ffffff;stroke-width:0.585918;stroke-linejoin:round"
       id="rect2-2"
       width="79.999405"
       height="9.5999289"
       x="5.7199593"
       y="63.623226" /><rect
       style="fill:#ffffff;stroke-width:0.585918;stroke-linejoin:round"
       id="rect2-15"
       width="79.999405"
       height="9.5999289"
       x="5.7199593"
       y="50.930916" /><text
       xml:space="preserve"
       style="font-size:3.04798px;line-height:4.76246px;font-family:'Fira Sans';-inkscape-font-specification:'Fira Sans';letter-spacing:0px;word-spacing:0px;fill:#132f55;fill-opacity:1;stroke:#000000;stroke-width:0.806296px;stroke-linecap:butt;stroke-linejoin:miter;stroke-opacity:1"
       x="16.255899"
       y="44.10537"
       id="DATE17"><tspan
         sodipodi:role="line"
         id="tspan2"
         style="font-style:normal;font-variant:normal;font-weight:normal;font-stretch:normal;font-size:3.04798px;line-height:4.76246px;font-family:Industry;-inkscape-font-specification:Industry;fill:#132f55;fill-opacity:1;stroke:none;stroke-width:0.806296px"
         x="16.255899"
         y="44.10537">XX.XX.XXXX</tspan></text><text
       xml:space="preserve"
       style="font-size:3.04798px;line-height:4.76246px;font-family:'Fira Sans';-inkscape-font-specification:'Fira Sans';letter-spacing:0px;word-spacing:0px;fill:#132f55;fill-opacity:1;stroke:#000000;stroke-width:0.806296px;stroke-linecap:butt;stroke-linejoin:miter;stroke-opacity:1"
       x="44.686733"
       y="44.041359"
       id="TEAM17"><tspan
         sodipodi:role="line"
         id="tspan2-8"
         style="font-style:normal;font-variant:normal;font-weight:normal;font-stretch:normal;font-size:3.04798px;line-height:4.76246px;font-family:Industry;-inkscape-font-specification:Industry;fill:#132f55;fill-opacity:1;stroke:none;stroke-width:0.806296px"
         x="44.686733"
         y="44.041359">TEAM [X]</tspan></text><text
       xml:space="preserve"
       style="font-size:3.04798px;line-height:4.76246px;font-family:'Fira Sans';-inkscape-font-specification:'Fira Sans';letter-spacing:0px;word-spacing:0px;fill:#132f55;fill-opacity:1;stroke:#000000;stroke-width:0.806296px;stroke-linecap:butt;stroke-linejoin:miter;stroke-opacity:1"
       x="75.00679"
       y="44.10537"
       id="TIME17"><tspan
         sodipodi:role="line"
         id="tspan2-1"
         style="font-style:normal;font-variant:normal;font-weight:normal;font-stretch:normal;font-size:3.04798px;line-height:4.76246px;font-family:Industry;-inkscape-font-specification:Industry;fill:#132f55;fill-opacity:1;stroke:none;stroke-width:0.806296px"
         x="75.00679"
         y="44.10537">HH:MM</tspan></text><text
       xml:space="preserve"
       style="font-size:4.38909px;line-height:11.3936px;font-family:'Fira Sans';-inkscape-font-specification:'Fira Sans, Normal';letter-spacing:0px;word-spacing:0px;fill:#132f55;fill-opacity:1;stroke:none;stroke-width:0.806296px;stroke-linecap:butt;stroke-linejoin:miter;stroke-opacity:1"
       x="6.7316265"
       y="44.574757"
       id="text6"><tspan
         sodipodi:role="line"
         id="tspan6"
         style="font-style:normal;font-variant:normal;font-weight:normal;font-stretch:normal;font-size:4.38909px;line-height:11.3936px;font-family:Industry;-inkscape-font-specification:Industry;fill:#132f55;fill-opacity:1;stroke:none;stroke-width:0.806296px"
         x="6.7316265"
         y="44.574757">U17</tspan></text><text
       xml:space="preserve"
       style="font-size:3.04798px;line-height:4.76246px;font-family:'Fira Sans';-inkscape-font-specification:'Fira Sans';letter-spacing:0px;word-spacing:0px;fill:#132f55;fill-opacity:1;stroke:#000000;stroke-width:0.806296px;stroke-linecap:butt;stroke-linejoin:miter;stroke-opacity:1"
       x="16.255899"
       y="56.797676"
       id="DATE15"><tspan
         sodipodi:role="line"
         id="tspan2-6"
         style="font-style:normal;font-variant:normal;font-weight:normal;font-stretch:normal;font-size:3.04798px;line-height:4.76246px;font-family:Industry;-inkscape-font-specification:Industry;fill:#132f55;fill-opacity:1;stroke:none;stroke-width:0.806296px"
         x="16.255899"
         y="56.797676">XX.XX.XXXX</tspan></text><text
       xml:space="preserve"
       style="font-size:3.04798px;line-height:4.76246px;font-family:'Fira Sans';-inkscape-font-specification:'Fira Sans';letter-spacing:0px;word-spacing:0px;fill:#132f55;fill-opacity:1;stroke:#000000;stroke-width:0.806296px;stroke-linecap:butt;stroke-linejoin:miter;stroke-opacity:1"
       x="44.686733"
       y="56.733665"
       id="TEAM15"><tspan
         sodipodi:role="line"
         id="tspan2-8-1"
         style="font-style:normal;font-variant:normal;font-weight:normal;font-stretch:normal;font-size:3.04798px;line-height:4.76246px;font-family:Industry;-inkscape-font-specification:Industry;fill:#132f55;fill-opacity:1;stroke:none;stroke-width:0.806296px"
         x="44.686733"
         y="56.733665">TEAM [X]</tspan></text><text
       xml:space="preserve"
       style="font-size:3.04798px;line-height:4.76246px;font-family:'Fira Sans';-inkscape-font-specification:'Fira Sans';letter-spacing:0px;word-spacing:0px;fill:#132f55;fill-opacity:1;stroke:#000000;stroke-width:0.806296px;stroke-linecap:butt;stroke-linejoin:miter;stroke-opacity:1"
       x="75.00679"
       y="56.797676"
       id="TIME15"><tspan
         sodipodi:role="line"
         id="tspan2-1-9"
         style="font-style:normal;font-variant:normal;font-weight:normal;font-stretch:normal;font-size:3.04798px;line-height:4.76246px;font-family:Industry;-inkscape-font-specification:Industry;fill:#132f55;fill-opacity:1;stroke:none;stroke-width:0.806296px"
         x="75.00679"
         y="56.797676">HH:MM</tspan></text><text
       xml:space="preserve"
       style="font-size:4.38909px;line-height:11.3936px;font-family:'Fira Sans';-inkscape-font-specification:'Fira Sans, Normal';letter-spacing:0px;word-spacing:0px;fill:#132f55;fill-opacity:1;stroke:none;stroke-width:0.806296px;stroke-linecap:butt;stroke-linejoin:miter;stroke-opacity:1"
       x="6.7142634"
       y="57.267063"
       id="text6-8"><tspan
         sodipodi:role="line"
         id="tspan6-4"
         style="font-style:normal;font-variant:normal;font-weight:normal;font-stretch:normal;font-size:4.38909px;line-height:11.3936px;font-family:Industry;-inkscape-font-specification:Industry;fill:#132f55;fill-opacity:1;stroke:none;stroke-width:0.806296px"
         x="6.7142634"
         y="57.267063">U15</tspan></text><text
       xml:space="preserve"
       style="font-size:3.04798px;line-height:4.76246px;font-family:'Fira Sans';-inkscape-font-specification:'Fira Sans';letter-spacing:0px;word-spacing:0px;fill:#132f55;fill-opacity:1;stroke:#000000;stroke-width:0.806296px;stroke-linecap:butt;stroke-linejoin:miter;stroke-opacity:1"
       x="16.255899"
       y="69.489983"
       id="DATE13"><tspan
         sodipodi:role="line"
         id="tspan2-6-4"
         style="font-style:normal;font-variant:normal;font-weight:normal;font-stretch:normal;font-size:3.04798px;line-height:4.76246px;font-family:Industry;-inkscape-font-specification:Industry;fill:#132f55;fill-opacity:1;stroke:none;stroke-width:0.806296px"
         x="16.255899"
         y="69.489983">XX.XX.XXXX</tspan></text><text
       xml:space="preserve"
       style="font-size:3.04798px;line-height:4.76246px;font-family:'Fira Sans';-inkscape-font-specification:'Fira Sans';letter-spacing:0px;word-spacing:0px;fill:#132f55;fill-opacity:1;stroke:#000000;stroke-width:0.806296px;stroke-linecap:butt;stroke-linejoin:miter;stroke-opacity:1"
       x="44.686733"
       y="69.425972"
       id="TEAM13"><tspan
         sodipodi:role="line"
         id="tspan2-8-1-4"
         style="font-style:normal;font-variant:normal;font-weight:normal;font-stretch:normal;font-size:3.04798px;line-height:4.76246px;font-family:Industry;-inkscape-font-specification:Industry;fill:#132f55;fill-opacity:1;stroke:none;stroke-width:0.806296px"
         x="44.686733"
         y="69.425972">TEAM [X]</tspan></text><text
       xml:space="preserve"
       style="font-size:3.04798px;line-height:4.76246px;font-family:'Fira Sans';-inkscape-font-specification:'Fira Sans';letter-spacing:0px;word-spacing:0px;fill:#132f55;fill-opacity:1;stroke:#000000;stroke-width:0.806296px;stroke-linecap:butt;stroke-linejoin:miter;stroke-opacity:1"
       x="75.00679"
       y="69.489983"
       id="TIME13"><tspan
         sodipodi:role="line"
         id="tspan2-1-9-6"
         style="font-style:normal;font-variant:normal;font-weight:normal;font-stretch:normal;font-size:3.04798px;line-height:4.76246px;font-family:Industry;-inkscape-font-specification:Industry;fill:#132f55;fill-opacity:1;stroke:none;stroke-width:0.806296px"
         x="75.00679"
         y="69.489983">HH:MM</tspan></text><text
       xml:space="preserve"
       style="font-size:4.38909px;line-height:11.3936px;font-family:'Fira Sans';-inkscape-font-specification:'Fira Sans, Normal';letter-spacing:0px;word-spacing:0px;fill:#132f55;fill-opacity:1;stroke:none;stroke-width:0.806296px;stroke-linecap:butt;stroke-linejoin:miter;stroke-opacity:1"
       x="6.7192264"
       y="69.959373"
       id="text6-8-3"><tspan
         sodipodi:role="line"
         id="tspan6-4-1"
         style="font-style:normal;font-variant:normal;font-weight:normal;font-stretch:normal;font-size:4.38909px;line-height:11.3936px;font-family:Industry;-inkscape-font-specification:Industry;fill:#132f55;fill-opacity:1;stroke:none;stroke-width:0.806296px"
         x="6.7192264"
         y="69.959373">U13</tspan></text><text
       xml:space="preserve"
       style="font-size:3.04798px;line-height:4.76246px;font-family:'Fira Sans';-inkscape-font-specification:'Fira Sans';letter-spacing:0px;word-spacing:0px;fill:#132f55;fill-opacity:1;stroke:#000000;stroke-width:0.806296px;stroke-linecap:butt;stroke-linejoin:miter;stroke-opacity:1"
       x="16.255899"
       y="82.182297"
       id="DATE11"><tspan
         sodipodi:role="line"
         id="tspan2-6-7"
         style="font-style:normal;font-variant:normal;font-weight:normal;font-stretch:normal;font-size:3.04798px;line-height:4.76246px;font-family:Industry;-inkscape-font-specification:Industry;fill:#132f55;fill-opacity:1;stroke:none;stroke-width:0.806296px"
         x="16.255899"
         y="82.182297">XX.XX.XXXX</tspan></text><text
       xml:space="preserve"
       style="font-size:3.04798px;line-height:4.76246px;font-family:'Fira Sans';-inkscape-font-specification:'Fira Sans';letter-spacing:0px;word-spacing:0px;fill:#132f55;fill-opacity:1;stroke:#000000;stroke-width:0.806296px;stroke-linecap:butt;stroke-linejoin:miter;stroke-opacity:1"
       x="44.686733"
       y="82.118286"
       id="TEAM11"><tspan
         sodipodi:role="line"
         id="tspan2-8-1-5"
         style="font-style:normal;font-variant:normal;font-weight:normal;font-stretch:normal;font-size:3.04798px;line-height:4.76246px;font-family:Industry;-inkscape-font-specification:Industry;fill:#132f55;fill-opacity:1;stroke:none;stroke-width:0.806296px"
         x="44.686733"
         y="82.118286">TEAM [X]</tspan></text><text
       xml:space="preserve"
       style="font-size:3.04798px;line-height:4.76246px;font-family:'Fira Sans';-inkscape-font-specification:'Fira Sans';letter-spacing:0px;word-spacing:0px;fill:#132f55;fill-opacity:1;stroke:#000000;stroke-width:0.806296px;stroke-linecap:butt;stroke-linejoin:miter;stroke-opacity:1"
       x="75.00679"
       y="82.182297"
       id="TIME11"><tspan
         sodipodi:role="line"
         id="tspan2-1-9-1"
         style="font-style:normal;font-variant:normal;font-weight:normal;font-stretch:normal;font-size:3.04798px;line-height:4.76246px;font-family:Industry;-inkscape-font-specification:Industry;fill:#132f55;fill-opacity:1;stroke:none;stroke-width:0.806296px"
         x="75.00679"
         y="82.182297">HH:MM</tspan></text><text
       xml:space="preserve"
       style="font-size:4.38909px;line-height:11.3936px;font-family:'Fira Sans';-inkscape-font-specification:'Fira Sans, Normal';letter-spacing:0px;word-spacing:0px;fill:#132f55;fill-opacity:1;stroke:none;stroke-width:0.806296px;stroke-linecap:butt;stroke-linejoin:miter;stroke-opacity:1"
       x="7.2773261"
       y="82.651688"
       id="text6-8-8"><tspan
         sodipodi:role="line"
         id="tspan6-4-5"
         style="font-style:normal;font-variant:normal;font-weight:normal;font-stretch:normal;font-size:4.38909px;line-height:11.3936px;font-family:Industry;-inkscape-font-specification:Industry;fill:#132f55;fill-opacity:1;stroke:none;stroke-width:0.806296px"
         x="7.2773261"
         y="82.651688">U11</tspan></text><text
       xml:space="preserve"
       style="font-size:3.04798px;line-height:4.76246px;font-family:'Fira Sans';-inkscape-font-specification:'Fira Sans';letter-spacing:0px;word-spacing:0px;fill:#132f55;fill-opacity:1;stroke:#000000;stroke-width:0.806296px;stroke-linecap:butt;stroke-linejoin:miter;stroke-opacity:1"
       x="16.255899"
       y="94.874603"
       id="DATE9"><tspan
         sodipodi:role="line"
         id="tspan2-6-3"
         style="font-style:normal;font-variant:normal;font-weight:normal;font-stretch:normal;font-size:3.04798px;line-height:4.76246px;font-family:Industry;-inkscape-font-specification:Industry;fill:#132f55;fill-opacity:1;stroke:none;stroke-width:0.806296px"
         x="16.255899"
         y="94.874603">XX.XX.XXXX</tspan></text><text
       xml:space="preserve"
       style="font-size:3.04798px;line-height:4.76246px;font-family:'Fira Sans';-inkscape-font-specification:'Fira Sans';letter-spacing:0px;word-spacing:0px;fill:#132f55;fill-opacity:1;stroke:#000000;stroke-width:0.806296px;stroke-linecap:butt;stroke-linejoin:miter;stroke-opacity:1"
       x="44.686733"
       y="94.810593"
       id="TEAM9"><tspan
         sodipodi:role="line"
         id="tspan2-8-1-8"
         style="font-style:normal;font-variant:normal;font-weight:normal;font-stretch:normal;font-size:3.04798px;line-height:4.76246px;font-family:Industry;-inkscape-font-specification:Industry;fill:#132f55;fill-opacity:1;stroke:none;stroke-width:0.806296px"
         x="44.686733"
         y="94.810593">TEAM [X]</tspan></text><text
       xml:space="preserve"
       style="font-size:3.04798px;line-height:4.76246px;font-family:'Fira Sans';-inkscape-font-specification:'Fira Sans';letter-spacing:0px;word-spacing:0px;fill:#132f55;fill-opacity:1;stroke:#000000;stroke-width:0.806296px;stroke-linecap:butt;stroke-linejoin:miter;stroke-opacity:1"
       x="75.00679"
       y="94.874603"
       id="TIME9"><tspan
         sodipodi:role="line"
         id="tspan2-1-9-64"
         style="font-style:normal;font-variant:normal;font-weight:normal;font-stretch:normal;font-size:3.04798px;line-height:4.76246px;font-family:Industry;-inkscape-font-specification:Industry;fill:#132f55;fill-opacity:1;stroke:none;stroke-width:0.806296px"
         x="75.00679"
         y="94.874603">HH:MM</tspan></text><text
       xml:space="preserve"
       style="font-size:4.38909px;line-height:11.3936px;font-family:'Fira Sans';-inkscape-font-specification:'Fira Sans, Normal';letter-spacing:0px;word-spacing:0px;fill:#132f55;fill-opacity:1;stroke:none;stroke-width:0.806296px;stroke-linecap:butt;stroke-linejoin:miter;stroke-opacity:1"
       x="7.763494"
       y="95.343994"
       id="text6-8-33"><tspan
         sodipodi:role="line"
         id="tspan6-4-3"
         style="font-style:normal;font-variant:normal;font-weight:normal;font-stretch:normal;font-size:4.38909px;line-height:11.3936px;font-family:Industry;-inkscape-font-specification:Industry;fill:#132f55;fill-opacity:1;stroke:none;stroke-width:0.806296px"
         x="7.763494"
         y="95.343994">U9</tspan></text><path
       id="rect3"
       style="fill:#132f55;fill-opacity:1;stroke:none;stroke-width:0.0556192;stroke-linejoin:round"
       d="m 35.72907,39.611567 h 7.530482 l -1.075935,6.854013 h -5.378612 z"
       sodipodi:nodetypes="ccccc" /><text
       xml:space="preserve"
       style="font-size:4.96092px;line-height:2.44184px;font-family:'Fira Sans';-inkscape-font-specification:'Fira Sans, Normal';letter-spacing:0px;word-spacing:0px;fill:none;stroke:#000000;stroke-width:0.084666px;stroke-linecap:butt;stroke-linejoin:miter;stroke-opacity:1"
       x="30.439415"
       y="49.354511"
       id="text4"
       transform="rotate(-7.4882354)"><tspan
         sodipodi:role="line"
         id="tspan4"
         style="font-style:normal;font-variant:normal;font-weight:normal;font-stretch:normal;font-size:4.96092px;line-height:2.44184px;font-family:Industry;-inkscape-font-specification:Industry;fill:#ffffff;fill-opacity:1;stroke:none;stroke-width:0.084666px"
         x="30.439415"
         y="49.354511">V</tspan></text><text
       xml:space="preserve"
       style="font-size:4.96092px;line-height:2.44184px;font-family:'Fira Sans';-inkscape-font-specification:'Fira Sans, Normal';letter-spacing:0px;word-spacing:0px;fill:none;stroke:#000000;stroke-width:0.084666px;stroke-linecap:butt;stroke-linejoin:miter;stroke-opacity:1"
       x="48.661198"
       y="33.679802"
       id="text4-6"
       transform="rotate(13.856629)"><tspan
         sodipodi:role="line"
         id="tspan4-3"
         style="font-style:normal;font-variant:normal;font-weight:normal;font-stretch:normal;font-size:4.96092px;line-height:2.44184px;font-family:Industry;-inkscape-font-specification:Industry;fill:#ffffff;fill-opacity:1;stroke:none;stroke-width:0.084666px"
         x="48.661198"
         y="33.679802">S</tspan></text><path
       style="fill:#ffffff;fill-opacity:1;fill-rule:evenodd;stroke:#132f55;stroke-width:0.115839;stroke-linecap:butt;stroke-linejoin:miter;stroke-dasharray:none;stroke-opacity:1"
       d="m 39.508447,39.817993 h 1.240522 l -1.219346,2.269363 h 1.010601 l -2.275947,4.202133 1.088653,-3.645654 h -0.876017 z"
       id="path4"
       sodipodi:nodetypes="cccccccc" /><path
       id="rect3-2"
       style="fill:#132f55;fill-opacity:1;stroke:none;stroke-width:0.0556192;stroke-linejoin:round"
       d="m 35.72907,52.303874 h 7.530482 l -1.075935,6.854013 h -5.378612 z"
       sodipodi:nodetypes="ccccc" /><text
       xml:space="preserve"
       style="font-size:4.96092px;line-height:2.44184px;font-family:'Fira Sans';-inkscape-font-specification:'Fira Sans, Normal';letter-spacing:0px;word-spacing:0px;fill:none;stroke:#000000;stroke-width:0.084666px;stroke-linecap:butt;stroke-linejoin:miter;stroke-opacity:1"
       x="28.785322"
       y="61.938572"
       id="text4-7"
       transform="rotate(-7.4882354)"><tspan
         sodipodi:role="line"
         id="tspan4-8"
         style="font-style:normal;font-variant:normal;font-weight:normal;font-stretch:normal;font-size:4.96092px;line-height:2.44184px;font-family:Industry;-inkscape-font-specification:Industry;fill:#ffffff;fill-opacity:1;stroke:none;stroke-width:0.084666px"
         x="28.785322"
         y="61.938572">V</tspan></text><text
       xml:space="preserve"
       style="font-size:4.96092px;line-height:2.44184px;font-family:'Fira Sans';-inkscape-font-specification:'Fira Sans, Normal';letter-spacing:0px;word-spacing:0px;fill:none;stroke:#000000;stroke-width:0.084666px;stroke-linecap:butt;stroke-linejoin:miter;stroke-opacity:1"
       x="51.700916"
       y="46.002739"
       id="text4-6-5"
       transform="rotate(13.856629)"><tspan
         sodipodi:role="line"
         id="tspan4-3-7"
         style="font-style:normal;font-variant:normal;font-weight:normal;font-stretch:normal;font-size:4.96092px;line-height:2.44184px;font-family:Industry;-inkscape-font-specification:Industry;fill:#ffffff;fill-opacity:1;stroke:none;stroke-width:0.084666px"
         x="51.700916"
         y="46.002739">S</tspan></text><path
       style="fill:#ffffff;fill-opacity:1;fill-rule:evenodd;stroke:#132f55;stroke-width:0.115839;stroke-linecap:butt;stroke-linejoin:miter;stroke-dasharray:none;stroke-opacity:1"
       d="m 39.508447,52.5103 h 1.240522 l -1.219346,2.269363 h 1.010601 l -2.275947,4.202133 1.088653,-3.645654 h -0.876017 z"
       id="path4-4"
       sodipodi:nodetypes="cccccccc" /><path
       id="rect3-5"
       style="fill:#132f55;fill-opacity:1;stroke:none;stroke-width:0.0556192;stroke-linejoin:round"
       d="m 35.72907,64.996184 h 7.530482 l -1.075935,6.854013 h -5.378612 z"
       sodipodi:nodetypes="ccccc" /><text
       xml:space="preserve"
       style="font-size:4.96092px;line-height:2.44184px;font-family:'Fira Sans';-inkscape-font-specification:'Fira Sans, Normal';letter-spacing:0px;word-spacing:0px;fill:none;stroke:#000000;stroke-width:0.084666px;stroke-linecap:butt;stroke-linejoin:miter;stroke-opacity:1"
       x="27.131226"
       y="74.522636"
       id="text4-8"
       transform="rotate(-7.4882354)"><tspan
         sodipodi:role="line"
         id="tspan4-83"
         style="font-style:normal;font-variant:normal;font-weight:normal;font-stretch:normal;font-size:4.96092px;line-height:2.44184px;font-family:Industry;-inkscape-font-specification:Industry;fill:#ffffff;fill-opacity:1;stroke:none;stroke-width:0.084666px"
         x="27.131226"
         y="74.522636">V</tspan></text><text
       xml:space="preserve"
       style="font-size:4.96092px;line-height:2.44184px;font-family:'Fira Sans';-inkscape-font-specification:'Fira Sans, Normal';letter-spacing:0px;word-spacing:0px;fill:none;stroke:#000000;stroke-width:0.084666px;stroke-linecap:butt;stroke-linejoin:miter;stroke-opacity:1"
       x="54.740643"
       y="58.325676"
       id="text4-6-1"
       transform="rotate(13.856629)"><tspan
         sodipodi:role="line"
         id="tspan4-3-8"
         style="font-style:normal;font-variant:normal;font-weight:normal;font-stretch:normal;font-size:4.96092px;line-height:2.44184px;font-family:Industry;-inkscape-font-specification:Industry;fill:#ffffff;fill-opacity:1;stroke:none;stroke-width:0.084666px"
         x="54.740643"
         y="58.325676">S</tspan></text><path
       style="fill:#ffffff;fill-opacity:1;fill-rule:evenodd;stroke:#132f55;stroke-width:0.115839;stroke-linecap:butt;stroke-linejoin:miter;stroke-dasharray:none;stroke-opacity:1"
       d="m 39.508447,65.20261 h 1.240522 l -1.219346,2.269363 h 1.010601 l -2.275947,4.202133 1.088653,-3.645654 h -0.876017 z"
       id="path4-9"
       sodipodi:nodetypes="cccccccc" /><path
       id="rect3-8"
       style="fill:#132f55;fill-opacity:1;stroke:none;stroke-width:0.0556192;stroke-linejoin:round"
       d="m 35.72907,77.688494 h 7.530482 l -1.075935,6.854013 h -5.378612 z"
       sodipodi:nodetypes="ccccc" /><text
       xml:space="preserve"
       style="font-size:4.96092px;line-height:2.44184px;font-family:'Fira Sans';-inkscape-font-specification:'Fira Sans, Normal';letter-spacing:0px;word-spacing:0px;fill:none;stroke:#000000;stroke-width:0.084666px;stroke-linecap:butt;stroke-linejoin:miter;stroke-opacity:1"
       x="25.477133"
       y="87.106705"
       id="text4-0"
       transform="rotate(-7.4882354)"><tspan
         sodipodi:role="line"
         id="tspan4-4"
         style="font-style:normal;font-variant:normal;font-weight:normal;font-stretch:normal;font-size:4.96092px;line-height:2.44184px;font-family:Industry;-inkscape-font-specification:Industry;fill:#ffffff;fill-opacity:1;stroke:none;stroke-width:0.084666px"
         x="25.477133"
         y="87.106705">V</tspan></text><text
       xml:space="preserve"
       style="font-size:4.96092px;line-height:2.44184px;font-family:'Fira Sans';-inkscape-font-specification:'Fira Sans, Normal';letter-spacing:0px;word-spacing:0px;fill:none;stroke:#000000;stroke-width:0.084666px;stroke-linecap:butt;stroke-linejoin:miter;stroke-opacity:1"
       x="57.780361"
       y="70.648613"
       id="text4-6-8"
       transform="rotate(13.856629)"><tspan
         sodipodi:role="line"
         id="tspan4-3-88"
         style="font-style:normal;font-variant:normal;font-weight:normal;font-stretch:normal;font-size:4.96092px;line-height:2.44184px;font-family:Industry;-inkscape-font-specification:Industry;fill:#ffffff;fill-opacity:1;stroke:none;stroke-width:0.084666px"
         x="57.780361"
         y="70.648613">S</tspan></text><path
       style="fill:#ffffff;fill-opacity:1;fill-rule:evenodd;stroke:#132f55;stroke-width:0.115839;stroke-linecap:butt;stroke-linejoin:miter;stroke-dasharray:none;stroke-opacity:1"
       d="m 39.508447,77.894921 h 1.240522 l -1.219346,2.269363 h 1.010601 l -2.275947,4.202133 1.088653,-3.645654 h -0.876017 z"
       id="path4-97"
       sodipodi:nodetypes="cccccccc" /><path
       id="rect3-3"
       style="fill:#132f55;fill-opacity:1;stroke:none;stroke-width:0.0556192;stroke-linejoin:round"
       d="m 35.72907,90.380801 h 7.530482 l -1.075935,6.854013 h -5.378612 z"
       sodipodi:nodetypes="ccccc" /><text
       xml:space="preserve"
       style="font-size:4.96092px;line-height:2.44184px;font-family:'Fira Sans';-inkscape-font-specification:'Fira Sans, Normal';letter-spacing:0px;word-spacing:0px;fill:none;stroke:#000000;stroke-width:0.084666px;stroke-linecap:butt;stroke-linejoin:miter;stroke-opacity:1"
       x="23.823036"
       y="99.690765"
       id="text4-9"
       transform="rotate(-7.4882354)"><tspan
         sodipodi:role="line"
         id="tspan4-2"
         style="font-style:normal;font-variant:normal;font-weight:normal;font-stretch:normal;font-size:4.96092px;line-height:2.44184px;font-family:Industry;-inkscape-font-specification:Industry;fill:#ffffff;fill-opacity:1;stroke:none;stroke-width:0.084666px"
         x="23.823036"
         y="99.690765">V</tspan></text><text
       xml:space="preserve"
       style="font-size:4.96092px;line-height:2.44184px;font-family:'Fira Sans';-inkscape-font-specification:'Fira Sans, Normal';letter-spacing:0px;word-spacing:0px;fill:none;stroke:#000000;stroke-width:0.084666px;stroke-linecap:butt;stroke-linejoin:miter;stroke-opacity:1"
       x="60.820084"
       y="82.97155"
       id="text4-6-54"
       transform="rotate(13.856629)"><tspan
         sodipodi:role="line"
         id="tspan4-3-0"
         style="font-style:normal;font-variant:normal;font-weight:normal;font-stretch:normal;font-size:4.96092px;line-height:2.44184px;font-family:Industry;-inkscape-font-specification:Industry;fill:#ffffff;fill-opacity:1;stroke:none;stroke-width:0.084666px"
         x="60.820084"
         y="82.97155">S</tspan></text><path
       style="fill:#ffffff;fill-opacity:1;fill-rule:evenodd;stroke:#132f55;stroke-width:0.115839;stroke-linecap:butt;stroke-linejoin:miter;stroke-dasharray:none;stroke-opacity:1"
       d="m 39.508447,90.587227 h 1.240522 l -1.219346,2.269363 h 1.010601 l -2.275947,4.202133 1.088653,-3.645654 h -0.876017 z"
       id="path4-5"
       sodipodi:nodetypes="cccccccc" /></g></svg>
