<?xml version="1.0" encoding="UTF-8" standalone="no"?>
<!-- Created with Inkscape (http://www.inkscape.org/) -->

<svg
   width="23.53293mm"
   height="21.418848mm"
   viewBox="0 0 23.53293 21.418848"
   version="1.1"
   id="svg1"
   inkscape:version="1.4.2 (ebf0e940d0, 2025-05-08)"
   sodipodi:docname="vs.svg"
   xmlns:inkscape="http://www.inkscape.org/namespaces/inkscape"
   xmlns:sodipodi="http://sodipodi.sourceforge.net/DTD/sodipodi-0.dtd"
   xmlns="http://www.w3.org/2000/svg"
   xmlns:svg="http://www.w3.org/2000/svg">
  <sodipodi:namedview
     id="namedview1"
     pagecolor="#ffffff"
     bordercolor="#666666"
     borderopacity="1.0"
     inkscape:showpageshadow="2"
     inkscape:pageopacity="0.0"
     inkscape:pagecheckerboard="true"
     inkscape:deskcolor="#d1d1d1"
     inkscape:document-units="mm"
     inkscape:zoom="6.2573512"
     inkscape:cx="27.647481"
     inkscape:cy="71.435978"
     inkscape:window-width="1920"
     inkscape:window-height="1163"
     inkscape:window-x="0"
     inkscape:window-y="0"
     inkscape:window-maximized="1"
     inkscape:current-layer="layer1" />
  <defs
     id="defs1" />
  <g
     inkscape:label="Ebene 1"
     inkscape:groupmode="layer"
     id="layer1"
     transform="translate(-62.475773,-59.590161)">
    <path
       id="rect3"
       style="fill:#0c1828;fill-opacity:1;stroke:none;stroke-width:0.173811;stroke-linejoin:round"
       d="m 62.475773,59.590161 3.362069,21.418848 h 16.808276 l 3.362586,-21.418848 z m 11.810132,0.644922 h 3.876766 l -3.810103,7.092074 h 1.465026 L 76.1106,66.139632 c 0.341586,-1.384768 1.204739,-1.906346 2.589506,-1.564762 l 3.552238,0.875915 c 1.384766,0.341583 1.906342,1.204738 1.564762,2.589506 l -0.311609,1.264523 -2.468066,-0.608749 0.233577,-0.948262 c 0.0272,-0.11038 0.02588,-0.190782 -0.0047,-0.240812 -0.0302,-0.05003 -0.100943,-0.08853 -0.211356,-0.115756 l -2.16731,-0.534851 c -0.11038,-0.02723 -0.190262,-0.02558 -0.240295,0.0047 -0.05,0.03023 -0.08902,0.100462 -0.116272,0.21084 l -0.241329,0.978235 c -0.02973,0.120413 -0.0254,0.212356 0.0124,0.274918 0.0478,0.06501 0.151923,0.138428 0.312643,0.220659 l 2.632397,1.367875 c 0.725627,0.381255 1.218069,0.758518 1.477429,1.131197 0.269394,0.375161 0.321386,0.898648 0.155546,1.570964 l -0.456819,1.851566 c -0.341587,1.384768 -1.20474,1.906346 -2.589506,1.564763 l -3.763078,-0.928626 c -1.199651,-0.295919 -1.751183,-0.983058 -1.655196,-2.06189 l -4.017326,7.417119 3.401859,-11.392586 h -1.11156 l -1.075903,6.420279 -2.935738,0.386023 -4.703589,-10.327018 2.766756,-0.363802 3.0856,7.772136 0.972551,-8.305437 1.971455,-0.259415 z m 1.879472,9.575643 -0.785482,1.450041 1.936316,0.47749 -0.26355,1.068668 c -0.047,0.190662 0.02486,0.309537 0.215491,0.356568 l 2.378149,0.586527 c 0.190667,0.04703 0.309541,-0.02483 0.356568,-0.21549 l 0.270784,-1.098641 c 0.02967,-0.120413 0.02093,-0.212982 -0.02687,-0.27802 -0.0478,-0.06503 -0.146976,-0.137821 -0.297656,-0.217557 l -2.632914,-1.367875 c -0.486009,-0.255355 -0.869492,-0.509094 -1.150834,-0.761711 z" />
    <path
       style="fill:#000000;fill-opacity:0;fill-rule:evenodd;stroke:#0c1828;stroke-width:0.362;stroke-linecap:butt;stroke-linejoin:miter;stroke-dasharray:none;stroke-opacity:1"
       d="m 74.117026,60.319783 h 3.87666 l -3.81048,7.091812 h 3.15815 l -7.11239,13.131762 3.40207,-11.392753 h -2.73757 z"
       id="path4-6"
       sodipodi:nodetypes="cccccccc" />
  </g>
</svg>
